# xmcd CD database file
#
# Track frame offsets:
#	150
#	21196
#	39645
#	51360
#	67960
#	82003
#	105421
#	123821
#	145240
#	160576
#
# Disc length: 2624 seconds
#
# Revision: 0
# Processed by: cddbd v1.5.2PL0 Copyright (c) Steve Scherf et al.
# Submitted via: CDex 1.70beta2
#
DISCID=7c0a3e0a
DTITLE=Zeman, Brock (10) - Cdn. - OVM - Cty. - Ya Ain't Crazy Henny Penny
DYEAR=2010
DGENRE=Country
TTITLE0=Life Is Good
TTITLE1=Places Where Your Leave Your Car
TTITLE2=Somebody's Comin'
TTITLE3=Song To A Girl
TTITLE4=Percy's Daughter
TTITLE5=Never Step On A Train
TTITLE6=Dust And Dirt
TTITLE7=Gone
TTITLE8=End Of The Tunnel
TTITLE9=Ya Ain't Crazy Henny Penny
EXTD=YEAR: 2010
EXTT0=
EXTT1=
EXTT2=
EXTT3=
EXTT4=
EXTT5=
EXTT6=
EXTT7=
EXTT8=
EXTT9=
PLAYORDER=
